<?xml version="1.0" standalone="no"?><!DOCTYPE svg PUBLIC "-//W3C//DTD SVG 1.1//EN" "http://www.w3.org/Graphics/SVG/1.1/DTD/svg11.dtd"><svg t="1772183669513" class="icon" viewBox="0 0 1024 1024" version="1.1" xmlns="http://www.w3.org/2000/svg" p-id="1212" xmlns:xlink="http://www.w3.org/1999/xlink" width="200" height="200"><path d="M705.11 294.38c13.6-3.47 34.17-7.88 52.65-8.44 13.64-0.42 25.12 10.15 25.93 23.77 1.49 24.87 2.7 167.46-1.81 236.64l-538.84-11.66s-12.83-207.22-10.8-289.1c0.34-13.5 11.35-24.28 24.85-24.28h71.44c12.02 0 22.32 8.61 24.46 20.44l8.4 46.02 89.18-8.33 19.53-8.73 6.39-28.78 93.26-4.13 11.19-18.25 6.39-43.7 14.92-6.39h74.73l13.73 13.86 10.66 101.25 3.73 9.81z" fill="#FFDB59" p-id="1213"></path><path d="M330.9 430.04h-80.94c-20.09 0-36.33 16.37-36.15 36.45 0.78 85.34 7.86 247.6 57.47 380.22 4.63 12.38 15.72 21.18 28.82 23 63.01 8.76 255.72 31.41 385.78 1.88 12.2-2.77 22.04-11.76 26.05-23.62 16.8-49.59 61.39-142.67 85.45-361.94 2.14-19.51-11.73-37.16-31.2-39.74l-100.06-13.24c-12.79-1.69-25.53 3.53-33.37 13.77-16.55 21.64-54.31 56.09-125.39 52.5-96.32-4.86-103.77-15.62-152.04-59.79-6.67-6.1-15.38-9.5-24.42-9.5z" fill="#F36B6B" p-id="1214"></path><path d="M532.48 897.99c-18.78 0-38.37-0.43-58.76-1.3-72.75-3.08-137.07-10.98-168.94-15.41-17.7-2.46-32.57-14.34-38.81-31.01-36.72-98.17-56.87-231.12-58.26-384.49-0.12-13.07 4.88-25.38 14.08-34.66 9.21-9.29 21.48-14.41 34.57-14.41h80.94a48.59 48.59 0 0 1 32.86 12.77c2.17 1.98 4.25 3.9 6.27 5.75 41.77 38.38 50.46 46.37 137.96 50.78 3.21 0.16 6.36 0.24 9.42 0.24 59.61 0 91.45-29.59 105.42-47.85 10.5-13.73 27.72-20.85 44.94-18.57l100.06 13.24c12.67 1.68 23.99 8.14 31.89 18.19 7.9 10.06 11.49 22.6 10.09 35.3-20.71 188.77-56.05 283.53-77.16 340.15-3.47 9.32-6.48 17.37-8.87 24.44-5.39 15.92-18.85 28.1-35.12 31.79-43.99 9.99-98.51 15.02-162.57 15.02zM256.36 441.73c-6.36 0-12.33 2.49-16.81 7-4.47 4.51-6.9 10.49-6.84 16.83 1.37 150.48 20.97 280.49 56.68 375.95 3.01 8.06 10.23 13.81 18.83 15 56.81 7.9 252.2 31.38 381.29 2.07 7.85-1.78 14.36-7.7 16.98-15.44 2.52-7.43 5.58-15.64 9.12-25.15 20.71-55.53 55.37-148.47 75.74-334.15 1.39-12.65-7.77-24.31-20.41-25.98l-100.06-13.24c-8.37-1.11-16.72 2.33-21.8 8.97-17.67 23.1-58.83 61.28-135.95 57.39-49.03-2.47-74.89-6.52-95.43-14.91-21.66-8.86-36.2-22.21-58.19-42.43-2-1.84-4.08-3.74-6.23-5.72a23.624 23.624 0 0 0-15.98-6.22h-80.94z" p-id="1215"></path><path d="M228.49 442.33c-0.53-4.58-12.91-113.11-10.87-194.93 0.51-20.45 16.91-36.47 37.35-36.47h71.44c18.09 0 33.55 12.92 36.76 30.72l8.4 45.99-24.59 4.49-8.4-46.02a12.351 12.351 0 0 0-12.16-10.18h-71.44c-6.76 0-12.19 5.31-12.35 12.09-1.99 80.05 10.59 190.34 10.72 191.44l-24.84 2.86z" p-id="1216"></path><path d="M323.16 433.33l-10.63-110.31c-1.31-13.59 4.9-26.8 16.2-34.49 22.11-15.04 91.85-22.33 137.09-18.56l-2.08 24.91c-49.13-4.09-108.34 5.73-120.95 14.31a12.391 12.391 0 0 0-5.38 11.42l10.63 110.31-24.88 2.4z" p-id="1217"></path><path d="M467.34 501.26l-24.98-1.12 10.8-241.59c0.89-20.01 17.29-35.69 37.32-35.69l77.17 0.17-0.06 25-77.14-0.17c-6.6 0-12.02 5.18-12.31 11.8l-10.8 241.59z" p-id="1218"></path><path d="M569.39 488.92c-16.07-162.39-9.06-258.98-3.45-302.1 2.41-18.54 18.34-32.53 37.04-32.53h64.71c16.49 0 31.23 11.03 35.84 26.83 11.1 38.05 12.58 88.51 12.47 115.21l-25-0.1c0.17-43.76-3.9-82.15-11.47-108.11-1.52-5.2-6.39-8.83-11.84-8.83h-64.71c-6.19 0-11.45 4.62-12.25 10.75-5.47 42.06-12.29 136.5 3.53 296.41l-24.88 2.46z" p-id="1219"></path><path d="M792.23 453.37l-24.95-1.63c4.37-66.98 3.39-112.64 1.8-139.16-0.42-6.95-6.16-12.24-13.07-12.03-17.22 0.52-36.66 4.67-49.94 8.06-5.05 1.29-8.78 5.48-9.5 10.68-5.17 37.4-2.99 108.15-2.97 108.86l-24.99 0.8c-0.1-2.99-2.27-73.58 3.19-113.08 2.12-15.31 13.14-27.67 28.09-31.48 14.5-3.7 35.87-8.23 55.36-8.82 20.52-0.62 37.56 14.98 38.79 35.52 1.63 27.23 2.64 74.01-1.81 142.28z" p-id="1220"></path><path d="M436 642.67a21.85 24.51 0 1 0 43.7 0 21.85 24.51 0 1 0-43.7 0Z" p-id="1221"></path><path d="M547.91 642.67a21.85 24.51 0 1 0 43.7 0 21.85 24.51 0 1 0-43.7 0Z" p-id="1222"></path><path d="M514.33 760.15c-23.97 0-45.86-12.16-58.56-32.53-3.65-5.86-1.87-13.57 3.99-17.22 5.86-3.65 13.57-1.87 17.22 3.99 8.11 13 22.07 20.76 37.35 20.76s29.24-7.76 37.35-20.76c3.65-5.86 11.36-7.65 17.22-3.99 5.86 3.65 7.65 11.36 3.99 17.22-12.7 20.37-34.6 32.53-58.56 32.53z" p-id="1223"></path></svg>